# xmcd CD database file
#
# Track frame offsets:
#	150
#	20442
#	41607
#
# Disc length: 771 seconds
#
# Revision: 0
# Processed by: cddbd v1.5PL3 Copyright (c) Steve Scherf et al.
# Submitted via: CDex 1.50
#
DISCID=1b030103
DTITLE=サイコ - 天国
DYEAR=2000
DGENRE=JPop
TTITLE0=天国
TTITLE1=SHOUT
TTITLE2=バイト
EXTD=YEAR: 2000
EXTT0=
EXTT1=
EXTT2=
PLAYORDER=
